# xmcd
#
# Track frame offsets:
#	150
#	13250
#	24432
#	38402
#	53880
#	63962
#	73552
#	86507
#	98490
#	110112
#	121942
#	132812
#	146047
#	158075
#	164960
#	177305
#	187657
#	200695
#	214582
#	225762
#	237252
#	250355
#	259842
#	271985
#
# Disc length: 3781 seconds
#
# Revision: 0
# Processed by: cddbd v1.4PL0 Copyright (c) Steve Scherf et al.
# Submitted via: dBpowerAMP V4.0
#
DISCID=4a0ec318
DTITLE=Sons of the Pioneers - Sons of the Pioneers
DYEAR=1994
DGENRE=Country
TTITLE0=Cool Water
TTITLE1=Red River Valley
TTITLE2=When It's Springtime In The Rockies
TTITLE3=Home On The Range
TTITLE4=Don't Fence Me In
TTITLE5=Along The Navajo Trail
TTITLE6=South Of The Border (Down Mexico Way)
TTITLE7=San Antonio Rose
TTITLE8=Have I Told You Lately That I Love You?
TTITLE9=Blue Eyes Crying In The Rain
TTITLE10=Teardrops In My Heart
TTITLE11=The Cowboy's Lament
TTITLE12=Cattle Call
TTITLE13=Along The Santa Fe Trail
TTITLE14=Tumbling Tumbleweeds
TTITLE15=Wagon Wheels
TTITLE16=Oh Bury Me Out On The Long Prairie
TTITLE17=Take Me Back To My Boots And Saddle
TTITLE18=Twilight On The Trail
TTITLE19=There's A Gold Mine In The Sky
TTITLE20=Empty Saddles
TTITLE21=Whoopie Ti-Yi-Yo
TTITLE22=The Last Roundup
TTITLE23=The Shifting Whispering Sand
EXTD=
EXTT0=
EXTT1=
EXTT2=
EXTT3=
EXTT4=
EXTT5=
EXTT6=
EXTT7=
EXTT8=
EXTT9=
EXTT10=
EXTT11=
EXTT12=
EXTT13=
EXTT14=
EXTT15=
EXTT16=
EXTT17=
EXTT18=
EXTT19=
EXTT20=
EXTT21=
EXTT22=
EXTT23=
PLAYORDER=
